<svg width="291.8" height="100.901" viewBox="0 0 291.8 100.901" xmlns="http://www.w3.org/2000/svg">
  <g id="svgGroup" stroke-linecap="round" fill-rule="evenodd" font-size="9pt" stroke="#000" stroke-width="0.25mm"
     fill="black" style="stroke:#000;stroke-width:0.25mm;fill:black">
    <path
      d="M 170.8 76.7 L 156.7 76.7 Q 155.9 73.3 155.7 69.3 Q 155.5 65.3 155.5 62.4 L 155.5 44.6 A 22.199 22.199 0 0 0 155.323 41.707 Q 155.123 40.187 154.696 38.922 A 10.61 10.61 0 0 0 154 37.3 A 4.988 4.988 0 0 0 150.82 34.817 Q 149.921 34.56 148.819 34.511 A 11.858 11.858 0 0 0 148.3 34.5 A 13.399 13.399 0 0 0 145.54 34.801 A 17.671 17.671 0 0 0 143.4 35.4 Q 140.8 36.3 138.3 38 Q 138.5 39.4 138.65 40.8 A 26.897 26.897 0 0 1 138.798 43.327 A 29.63 29.63 0 0 1 138.8 43.7 L 138.8 62.4 Q 138.8 65.3 139 69.3 A 44.967 44.967 0 0 0 139.449 73.839 A 36.623 36.623 0 0 0 140 76.7 L 125.9 76.7 Q 125.1 73.3 124.9 69.3 Q 124.7 65.3 124.7 62.4 L 124.7 44.6 Q 124.7 40.976 123.634 38.346 A 11.272 11.272 0 0 0 123.2 37.4 A 5.091 5.091 0 0 0 119.648 34.717 A 8.995 8.995 0 0 0 117.6 34.5 Q 115.3 34.5 112.85 35.4 A 22.279 22.279 0 0 0 109.203 37.144 A 26.092 26.092 0 0 0 108 37.9 L 108 76.7 L 93.9 76.7 L 93.9 25 L 105.2 23.8 L 106.4 30.6 Q 109.8 27.7 113.9 25.55 Q 118 23.4 123 23.4 A 18.116 18.116 0 0 1 126.571 23.734 Q 129.075 24.237 131 25.5 Q 134.2 27.6 136.1 31.1 Q 139.9 27.7 144.25 25.55 Q 148.6 23.4 153.6 23.4 A 18.438 18.438 0 0 1 157.017 23.701 A 13.174 13.174 0 0 1 160.8 25 Q 163.8 26.6 165.75 29.35 A 18.288 18.288 0 0 1 167.998 33.687 A 22.464 22.464 0 0 1 168.65 35.8 Q 169.6 39.5 169.6 43.7 L 169.6 62.4 Q 169.6 65.3 169.8 69.3 A 44.967 44.967 0 0 0 170.249 73.839 A 36.623 36.623 0 0 0 170.8 76.7 Z M 194.4 72.1 L 193.4 76.7 L 181.9 76.7 L 181.9 2.6 L 196 1.4 L 196 29.4 Q 199.1 26.8 202.95 25.1 A 20.251 20.251 0 0 1 210.601 23.411 A 23.431 23.431 0 0 1 211.3 23.4 A 18.689 18.689 0 0 1 216.48 24.096 A 16.154 16.154 0 0 1 220.05 25.6 Q 223.9 27.8 226.6 31.45 Q 229.3 35.1 230.7 39.9 Q 232.1 44.7 232.1 49.9 A 35.088 35.088 0 0 1 231.021 58.693 A 32.126 32.126 0 0 1 230.45 60.65 A 29.673 29.673 0 0 1 227.583 66.938 A 26.093 26.093 0 0 1 225.8 69.5 Q 222.8 73.3 218.5 75.5 A 20.221 20.221 0 0 1 210.692 77.635 A 24.369 24.369 0 0 1 208.9 77.7 A 22.174 22.174 0 0 1 204.479 77.277 A 17.807 17.807 0 0 1 201 76.2 A 26.324 26.324 0 0 1 194.789 72.421 A 29.497 29.497 0 0 1 194.4 72.1 Z M 83.1 76.7 L 70.1 76.7 Q 69.723 75.419 69.346 72.773 A 94.046 94.046 0 0 1 69.1 70.9 Q 65.8 73.8 61.75 75.5 Q 57.7 77.2 53.4 77.2 A 18.522 18.522 0 0 1 49.837 76.872 A 14.695 14.695 0 0 1 46.95 76 A 13.917 13.917 0 0 1 42.226 72.784 A 13.56 13.56 0 0 1 42.1 72.65 Q 40.1 70.5 39.05 67.55 Q 38 64.6 38 61.2 A 17.716 17.716 0 0 1 38.738 55.957 A 13.856 13.856 0 0 1 43.25 49.25 Q 47.317 45.881 54.234 45.121 A 39.141 39.141 0 0 1 58.5 44.9 A 54.361 54.361 0 0 1 61.643 44.995 A 64.166 64.166 0 0 1 63.15 45.1 Q 65.6 45.3 68 45.7 L 68 44.8 A 12.595 12.595 0 0 0 67.619 41.615 A 8.907 8.907 0 0 0 65.05 37.25 A 9.781 9.781 0 0 0 60.82 34.972 Q 59.302 34.567 57.498 34.51 A 18.939 18.939 0 0 0 56.9 34.5 Q 53.7 34.5 50.5 35.55 Q 47.3 36.6 44.1 38.3 L 40.1 28.5 A 30.533 30.533 0 0 1 46.568 25.476 A 36.497 36.497 0 0 1 49.2 24.7 Q 54.3 23.4 59.4 23.4 Q 70 23.4 75.95 29 A 17.808 17.808 0 0 1 80.761 36.977 Q 81.615 39.793 81.829 43.179 A 36.889 36.889 0 0 1 81.9 45.5 L 81.9 62.4 Q 81.9 65.3 82.1 69.3 A 44.967 44.967 0 0 0 82.549 73.839 A 36.623 36.623 0 0 0 83.1 76.7 Z M 28.7 23.8 L 28.7 78.2 A 40.879 40.879 0 0 1 28.228 84.621 Q 27.227 90.906 24.1 94.95 A 14.798 14.798 0 0 1 15.234 100.403 A 23.105 23.105 0 0 1 10.3 100.9 Q 7.1 100.9 4.55 100.25 Q 2 99.6 0 98.7 L 2.6 88.7 Q 3.9 89.3 5.25 89.55 Q 6.555 89.792 7.627 89.8 A 9.791 9.791 0 0 0 7.7 89.8 A 7.845 7.845 0 0 0 9.858 89.525 Q 12.519 88.764 13.4 85.9 A 21.077 21.077 0 0 0 14.02 83.19 Q 14.512 80.241 14.587 76.04 A 86.815 86.815 0 0 0 14.6 74.5 L 14.6 25 L 28.7 23.8 Z M 277.973 75.141 A 22.035 22.035 0 0 0 284.9 70.1 A 22.942 22.942 0 0 0 285.922 68.942 A 24.168 24.168 0 0 0 290.05 61.55 A 29.327 29.327 0 0 0 291.246 57.018 A 35.813 35.813 0 0 0 291.8 50.6 A 38.153 38.153 0 0 0 291.629 46.948 A 31.204 31.204 0 0 0 290.05 39.6 Q 288.3 34.6 284.95 31 A 21.679 21.679 0 0 0 282.943 29.102 A 23.662 23.662 0 0 0 276.7 25.4 A 25.893 25.893 0 0 0 271.648 23.932 A 32.965 32.965 0 0 0 265.6 23.4 A 34.31 34.31 0 0 0 261.133 23.682 A 26.663 26.663 0 0 0 254.5 25.4 A 26.889 26.889 0 0 0 253.744 25.723 A 23.197 23.197 0 0 0 246.2 31 Q 242.8 34.6 241.05 39.6 A 29.811 29.811 0 0 0 239.917 43.828 A 35.838 35.838 0 0 0 239.3 50.6 A 37.854 37.854 0 0 0 239.488 54.425 A 30.569 30.569 0 0 0 241.05 61.55 A 27.27 27.27 0 0 0 241.189 61.935 A 23.766 23.766 0 0 0 246.2 70.1 A 22.295 22.295 0 0 0 247.876 71.7 A 23.961 23.961 0 0 0 254.5 75.7 A 25.893 25.893 0 0 0 259.552 77.169 A 32.965 32.965 0 0 0 265.6 77.7 A 34.31 34.31 0 0 0 270.067 77.419 A 26.663 26.663 0 0 0 276.7 75.7 A 26.01 26.01 0 0 0 277.973 75.141 Z M 196 37.8 L 196 64.3 Q 198.4 65.4 200.9 66 A 23.167 23.167 0 0 0 203.264 66.446 A 17.067 17.067 0 0 0 205.5 66.6 A 13.625 13.625 0 0 0 209.284 66.105 A 9.725 9.725 0 0 0 214.85 62 Q 217.525 57.966 217.854 51.856 A 32.648 32.648 0 0 0 217.9 50.1 Q 217.9 42.3 214.8 38.4 A 9.839 9.839 0 0 0 207.692 34.547 A 12.538 12.538 0 0 0 206.6 34.5 A 15.567 15.567 0 0 0 202.785 34.991 A 18.72 18.72 0 0 0 201.25 35.45 Q 198.5 36.4 196 37.8 Z M 265.6 66.6 A 14.13 14.13 0 0 0 269.198 66.171 A 9.147 9.147 0 0 0 274.75 62.2 A 16.365 16.365 0 0 0 276.796 57.46 Q 277.6 54.425 277.6 50.6 A 29.925 29.925 0 0 0 277.263 45.975 Q 276.861 43.41 275.98 41.307 A 15.386 15.386 0 0 0 274.75 38.95 A 9.311 9.311 0 0 0 268.278 34.729 A 14.899 14.899 0 0 0 265.6 34.5 A 14.034 14.034 0 0 0 261.995 34.935 A 9.292 9.292 0 0 0 256.4 38.95 A 16.631 16.631 0 0 0 254.271 43.906 Q 253.717 46.049 253.561 48.57 A 32.909 32.909 0 0 0 253.5 50.6 Q 253.5 57.8 256.4 62.2 A 9.437 9.437 0 0 0 262.834 66.359 A 15.019 15.019 0 0 0 265.6 66.6 Z M 68.1 63.6 L 68.1 53.7 A 22.798 22.798 0 0 0 66.898 53.535 Q 66.173 53.453 65.35 53.4 A 57.458 57.458 0 0 0 64.251 53.339 Q 63.711 53.315 63.24 53.306 A 27.84 27.84 0 0 0 62.7 53.3 A 27.488 27.488 0 0 0 59.679 53.455 Q 56.127 53.849 54.15 55.25 A 6.236 6.236 0 0 0 51.457 59.794 A 8.567 8.567 0 0 0 51.4 60.8 A 8.811 8.811 0 0 0 51.581 62.644 Q 51.978 64.5 53.25 65.6 Q 55.1 67.2 58.1 67.2 A 13.58 13.58 0 0 0 62.65 66.396 A 15.744 15.744 0 0 0 63.3 66.15 Q 65.9 65.1 68.1 63.6 Z M 29.552 9.926 A 8.738 8.738 0 0 0 29.9 7.4 A 9.377 9.377 0 0 0 29.857 6.497 A 6.842 6.842 0 0 0 27.75 2.05 A 6.497 6.497 0 0 0 26.49 1.113 Q 25.407 0.493 24.013 0.218 A 12.502 12.502 0 0 0 21.6 0 A 14.416 14.416 0 0 0 20.703 0.028 Q 19.394 0.109 18.306 0.436 A 6.963 6.963 0 0 0 15.45 2.05 A 6.664 6.664 0 0 0 13.655 4.925 A 8.254 8.254 0 0 0 13.3 7.4 A 9.74 9.74 0 0 0 13.369 8.58 A 7.039 7.039 0 0 0 15.45 12.9 A 6.502 6.502 0 0 0 16.651 13.825 Q 17.749 14.485 19.174 14.774 A 12.197 12.197 0 0 0 21.6 15 A 14.111 14.111 0 0 0 22.468 14.974 Q 23.735 14.896 24.796 14.584 A 6.957 6.957 0 0 0 27.75 12.9 A 6.851 6.851 0 0 0 29.552 9.926 Z"
      vector-effect="non-scaling-stroke"/>
  </g>
</svg>
